<svg height="512" viewBox="0 0 44 56" width="512" xmlns="http://www.w3.org/2000/svg"><g id="067---Customer-Service-Award"><path id="Shape" d="m29 24h1c.5522847 0 1-.4477153 1-1v-3h-2z"/><path id="Shape" d="m22 14c-2.7600532.0033061-4.9966939 2.2399468-5 5v6c.1688386.8639829.621034 1.6469671 1.285 2.225 1.7 1.492 1.783 2.775 2.785 2.775h1.86c.981 0 1.12-1.314 2.78-2.771.6826461-.5947388 1.1384385-1.407392 1.29-2.3v-5.929c-.0033061-2.7600532-2.2399468-4.9966939-5-5z"/><path id="Shape" d="m10 42.786c-1.436-.831-2.034-2.478-2.771-3.906l-6.229 12.73 4.639-.621c.79096099-.1063483 1.56982108.2658086 1.984.948l2.361 4.063 6.2-12.68c-1.727-.395-4.227.602-6.184-.534z"/><path id="Shape" d="m13 24h2v-4h-2z"/><path id="Shape" d="m21.07 32c-.7756229.0256066-1.5264629-.2750921-2.07-.829v1.653c.806 1.576 5.212 1.588 6 0v-1.653c-1.041 1.029-2.008.829-3.93.829z"/><path id="Shape" d="m41.4 16.8c-.542-2.019.378-4.544-.347-5.8-.75-1.294-3.376-1.719-4.856-3.2s-1.906-4.11-3.197-4.856c-1.27-.734-3.745.2-5.8-.348-2-.534-3.659-2.596-5.2-2.596s-3.218 2.066-5.2 2.6c-2.021.542-4.542-.378-5.8.347-1.3.746-1.72 3.372-3.2 4.853s-4.109 1.91-4.855 3.2c-.759 1.316.216 3.7-.348 5.8-.535 2-2.597 3.659-2.597 5.2 0 1.516 2.071 3.233 2.6 5.2.542 2.019-.378 4.544.347 5.8.75 1.294 3.376 1.719 4.856 3.2s1.91 4.109 3.2 4.855c.945.545 2.638.164 4.2.164 1.809 0 2.65.507 4.2 1.561 2.38 1.624 2.828 1.626 5.213 0 2.162-1.474 2.85-1.694 5.622-1.494 2.808.207 3.15.009 4.383-2.551 1.175-2.436 1.682-2.946 4.126-4.126 2.577-1.241 2.752-1.589 2.551-4.384-.2-2.761.011-3.446 1.493-5.62 1.624-2.38 1.626-2.828 0-5.213-.6051607-.7802586-1.0753342-1.6563835-1.391-2.592zm-1.9 9.434c-.0722384.3591015-.3350302.6499706-.6849815.7581666-.3499513.1081959-.7310526.0164021-.993362-.2392658-.2623094-.255668-.3638443-.6342904-.2646565-.9869008 1.8584287-7.5957361-2.043226-15.4224314-9.2275071-18.51032233-7.184281-3.08789092-15.548056-.53302573-19.78052871 6.04231753-4.23247272 6.5753433-3.09462559 15.2462932 2.69103581 20.5070048l5.76-1.571v-3.472c-.8421316-.7380072-1.4648766-1.6935748-1.8-2.762h-2.2v2h1c.5522847 0 .9999999.4477153.9999999 1s-.4477152 1-.9999999 1h-1c-1.1045695 0-2-.8954305-2-2v-11c0-4.71 5.243-9 11-9s11 4.29 11 9v6c0 1.6568542-1.3431458 3-3 3h-1.208c-.3297733 1.068688-.9502163 2.0246273-1.792 2.761v3.475l5.789 1.581c1.0761856-.9846734 2.0140438-2.1105741 2.788-3.347.2927109-.469442.910558-.6127109 1.38-.32s.6127109.910558.32 1.38c-2.7595208 4.4305079-7.3087971 7.4425289-12.465104 8.2529949-5.1563068.810466-10.4102469-.6606898-14.395896-4.0309949-.0916165-.0591527-.1727287-.1331676-.24-.219-6.64582778-5.8118926-8.09247595-15.5873161-3.41482254-23.0749513 4.67765344-7.48763525 14.09726044-10.47472377 22.23504434-7.05104212s12.5888531 12.24636132 10.5067782 20.82599342z"/><path id="Shape" d="m34 42.787c-2.029 1.176-4.382.119-6.186.532l6.205 12.681 2.347-4.043c.4135799-.69936 1.2075319-1.0809463 2.012-.967l4.622.619-6.225-12.729c-.728 1.41-1.331 3.074-2.775 3.907z"/><path id="Shape" d="m30.823 35.354-4.323-1.181c-.587.803-1.85 1.827-4.49 1.827s-3.918-1.029-4.507-1.831l-4.309 1.176c5.342717 3.5383193 12.282673 3.5418623 17.629.009z"/><path id="Shape" d="m28.92 18h2.08v-1c0-3.237-3.932-7-9-7s-9 3.763-9 7v1h2.08c.494295-3.441787 3.4428998-5.9971786 6.92-5.9971786s6.425705 2.5553916 6.92 5.9971786z"/></g></svg>